{"title":"Alice Cooper - From The Inside - Custom Remaster by MC Lurken 24","uid":7692284,"size":931914856,"categoryP":"audio","categoryS":"flac","magnet":"?xt=urn:btih:fcd58b372998404010e01a6276f771aea04c1486&amp;dn=Alice+Cooper+-+From+The+Inside+-+Custom+Remaster+by+MC+Lurken+24&amp;tr=udp%3A%2F%2Ftracker.openbittorrent.com%3A80&amp;tr=udp%3A%2F%2Fopen.demonii.com%3A1337&amp;tr=udp%3A%2F%2Ftracker.coppersurfer.tk%3A6969&amp;tr=udp%3A%2F%2Fexodus.desync.com%3A6969","seeders":1,"leechers":1,"uploader":"beavis39","files":-1,"time":1349273767,"description":"Alice Cooper - From The Inside - Custom Remaster by MC Lurken (a.k.a. Beavis39)\n\n\n\n1 - From The Inside\n2 - Wish I Were Born In Beverly Hills\n3 - The Quiet Room\n4 - Nurse Rozetta\n5 - Millie And Billie\n6 - Serious\n7 - How You Gonna See Me Now\n8 - For Veronica's Sake\n9 - Jackknife Johnny\n10 - Inmates (We're All Crazy)\n\n\n\nSetup:\n-HP G72-250US\n-Intel Core i3 M350 2.27GHz\n-8Gb PC3-10700 RAM\n-Win7 64-bit SP1\n-SB X-Fi Surround 5.1\n\n\nProcess:\n-Original 16-bit/44.1kHz files joined in Wavelab 6\n-Remove DC offset and save as 64-bit float/44.1kHz\n-Resample to 384kHz in Wavelab w/crystal resampler ultra(slow) relax background priority\n-Create new 64-bit/384kHz master recording in Wavelab\n\n\nAs reported in Wavelab:\n-Original 16-bit/44.1kHz: Apparent Bit Resolution = 16, Peak = 0db\n-With DC Offset Removed: Apparent Bit Resolution = 23, Peak = 0db\n-64-bit/384kHz Recording: Apparent Bit Resolution = 42, Peak = 0.867db\n\n\n-Resample new 64-bit/384kHz master recording to 64-bit/96kHz in Wavelab w/crystal resampler ultra(slow) relax background priority\n-Apply MBIT+ 24-bit Dither in Wavelab w/Izotope Ozone 5 VST Plugin\n-Flac encode level 0 with Trader's Little Helper\n-Tag and pic with xrecode II\n\n\nfoobar2000 1.1.14a / Dynamic Range Meter 1.1.1\nlog date: 2012-10-02 16:47:21\n\n--------------------------------------------------------------------------------\nAnalyzed: ? / ?\n--------------------------------------------------------------------------------\n\nDR         Peak         RMS     Duration Track\n--------------------------------------------------------------------------------\nDR9       -0.08 dB   -10.55 dB      3:54 ?-01 - From The Inside\nDR9       -0.09 dB   -10.63 dB      3:37 ?-02 - Wish I Were Born In Beverly Hills\nDR9       -0.03 dB   -12.95 dB      3:52 ?-03 - The Quiet Room\nDR10      -0.12 dB   -12.27 dB      4:15 ?-04 - Nurse Rozetta\nDR12      -0.18 dB   -15.68 dB      4:13 ?-05 - Millie And Billie\nDR9       -0.02 dB   -11.09 dB      2:45 ?-06 - Serious\nDR10      -0.05 dB   -13.10 dB      3:58 ?-07 - How You Gonna See Me Now\nDR9       -0.44 dB   -11.05 dB      3:37 ?-08 - For Veronica's Sake\nDR9       -0.51 dB   -12.96 dB      3:46 ?-09 - Jackknife Johnny\nDR9       -0.52 dB   -12.60 dB      5:05 ?-10 - Inmates (We're All Crazy)\n--------------------------------------------------------------------------------\n\nNumber of tracks:  10\nOfficial DR value: DR9\n\nSamplerate:        96000 Hz\nChannels:          2\nBits per sample:   24\nBitrate:           4608 kbps\nCodec:             PCM\n\n\n\nenjoy :)","torrent":{"xt":"urn:btih:fcd58b372998404010e01a6276f771aea04c1486","amp;dn":"Alice+Cooper+-+From+The+Inside+-+Custom+Remaster+by+MC+Lurken+24","amp;tr":["udp%3A%2F%2Ftracker.openbittorrent.com%3A80","udp%3A%2F%2Fopen.demonii.com%3A1337","udp%3A%2F%2Ftracker.coppersurfer.tk%3A6969","udp%3A%2F%2Fexodus.desync.com%3A6969"],"infoHash":"fcd58b372998404010e01a6276f771aea04c1486","infoHashBuffer":{"type":"Buffer","data":[252,213,139,55,41,152,64,64,16,224,26,98,118,247,113,174,160,76,20,134]},"announce":[],"urlList":[]}}